<svg width="122" height="40" viewBox="0 0 122 40" fill="none" xmlns="http://www.w3.org/2000/svg">
<g clip-path="url(#clip0_2_28799)">
<path d="M58.7299 7.51621C58.0877 7.45047 57.4407 7.58572 56.878 7.90339C56.3154 8.22106 55.8647 8.70557 55.5876 9.29042C55.3105 9.87525 55.2209 10.5317 55.3309 11.1697C55.4408 11.8077 55.745 12.396 56.2017 12.8537C56.6584 13.3114 57.2451 13.6161 57.8814 13.726C58.5179 13.8359 59.1725 13.7457 59.7557 13.4676C60.3388 13.1895 60.8218 12.7372 61.1383 12.1729C61.4548 11.6085 61.5894 10.9598 61.5234 10.3157C61.4498 9.59822 61.1318 8.92808 60.6229 8.41817C60.1142 7.90826 59.4456 7.58972 58.7299 7.51621Z" fill="#00C28C"/>
<path fill-rule="evenodd" clip-rule="evenodd" d="M39.317 18.2859C41.0812 17.3108 42.1003 15.7071 42.1003 13.4528C42.1003 10.2264 39.8695 7.79092 35.5511 7.79092H26.3032V29.5878H35.4694C38.0777 29.5878 40.0415 29.0221 41.3012 27.8833C42.4895 26.8014 43.0348 25.1919 43.0348 23.3513C43.0289 20.9027 41.7196 19.0344 39.317 18.2859ZM31.5387 12.2921H34.3352C35.8296 12.2921 36.7816 13.1356 36.7816 14.4762C36.7816 15.8167 35.9651 16.7801 34.0114 16.7801H31.5387V12.2921ZM34.4401 25.1202H31.5387V20.6322H34.4065C36.0715 20.6322 37.047 21.543 37.047 22.9523C37.047 24.1773 36.2305 25.1187 34.4401 25.1187V25.1202Z" fill="#00C28C"/>
<path d="M47.5577 15.249C48.283 15.9494 48.7056 16.9068 48.7355 17.9159C49.2822 15.3517 50.7503 14.248 52.7156 14.248C54.2115 14.248 54.5847 14.4746 54.5847 14.4746V19.3091C54.5847 19.3091 54.0089 19.0591 52.8863 19.0591C51.8992 19.0591 51.0172 19.3778 50.45 20.2403C50.1307 20.7271 49.9164 21.4288 49.9164 22.382V29.5935H44.885V21.939C44.866 20.6993 44.6079 19.945 44.2303 19.3515C43.8306 18.7586 43.2819 18.2821 42.6396 17.97L44.8558 14.1691C45.8626 14.161 46.8326 14.5487 47.5577 15.249Z" fill="#00C28C"/>
<path d="M60.927 29.5863H55.897V15.9761L60.927 14.5215V29.5863Z" fill="#00C28C"/>
<path fill-rule="evenodd" clip-rule="evenodd" d="M73.0981 27.3177C69.9736 27.3177 68.5259 27.3177 68.5259 27.3177C67.7605 27.3177 67.3217 27.1025 67.3217 26.4724C67.3188 26.2689 67.3892 26.0712 67.5199 25.9155C68.2226 26.0526 68.9371 26.1197 69.653 26.1158C74.3185 26.1158 76.5621 23.7533 76.5621 20.3325C76.585 19.0849 76.2339 17.8592 75.5547 16.8137C75.8259 16.7334 76.1074 16.694 76.3901 16.6967H77.6047V12.447C77.6047 12.447 77.2007 12.4309 76.0854 12.4309C74.1492 12.4309 73.2454 13.4206 72.8166 14.6837C71.8044 14.3093 70.7317 14.1259 69.653 14.1428C64.8417 14.1428 62.7422 16.9204 62.7422 20.3383C62.7422 22.0926 63.3633 23.572 64.5836 24.5939C63.5426 25.262 62.8647 26.2476 62.8647 27.4932C62.8647 29.4506 64.117 30.4284 65.6041 30.867L62.2173 31.8493C62.0491 32.2691 61.9506 32.7134 61.9258 33.1651C61.9258 35.9267 64.4338 37.9167 69.5105 37.9167C75.9007 37.9167 78.2884 35.2231 78.2884 32.178C78.2856 28.8741 76.2225 27.3177 73.0981 27.3177ZM69.653 18.1236C71.1372 18.1236 71.8763 19.1118 71.8763 20.3325C71.8763 21.5532 71.1474 22.5399 69.653 22.5399C68.1833 22.5399 67.428 21.5517 67.428 20.3325C67.428 19.1133 68.1016 18.1294 69.653 18.1294V18.1236ZM69.7201 33.6606C67.3873 33.6606 66.4848 33.0526 66.4848 32.1155C66.4831 31.7346 66.6217 31.3666 66.874 31.0819H66.8919C66.9042 31.082 66.9167 31.0822 66.929 31.0825C66.9436 31.083 66.9582 31.0833 66.9727 31.0839C67.0029 31.0849 67.033 31.0863 67.0632 31.0877L67.0644 31.0878C67.1264 31.0907 67.1888 31.0936 67.2502 31.0936L72.1986 31.1126C73.0149 31.1126 73.4364 31.5585 73.4364 32.1506C73.4364 33.1548 72.0527 33.6666 69.7201 33.6666V33.6606Z" fill="#00C28C"/>
<path d="M93.0366 23.8673V19.3721C93.0366 16.7816 91.6545 14.2554 88.2545 14.2554C86.0807 14.2554 84.6942 15.3065 83.9055 16.8123V7.85379L78.8755 9.29521V29.6155H83.9055V22.1833C83.9055 21.3061 84.0148 20.6878 84.3429 20.1001C84.5231 19.76 84.7949 19.4774 85.1273 19.2846C85.4599 19.0918 85.8397 18.9965 86.2236 19.0095C87.4921 19.0095 88.014 19.9422 88.014 21.2828V25.1436C88.014 26.5294 88.1263 27.62 88.7649 28.4811C89.4369 29.386 90.6718 29.9431 92.3922 29.9431C94.3299 29.9431 95.5137 29.4532 95.5137 29.4532V24.9214C95.1197 25.0346 94.7121 25.0941 94.3021 25.0983C93.4449 25.0924 93.0366 24.7006 93.0366 23.8673Z" fill="#00C28C"/>
<path d="M103.031 25.018C102.146 25.018 101.671 24.632 101.671 23.5868V18.2582H105.807V14.4076H101.671V9.61258L96.6398 10.8391V14.4076H94.3652V18.2582H96.6398V24.1321C96.6398 26.0414 96.9575 27.1349 97.637 28.0179C98.5554 29.2107 99.8138 29.7722 101.92 29.7722C104.844 29.7722 107.155 28.3175 107.155 28.3175L104.912 24.4771C104.912 24.4771 103.972 25.018 103.031 25.018Z" fill="#00C28C"/>
<path fill-rule="evenodd" clip-rule="evenodd" d="M114.883 25.496C114.037 25.5153 113.207 25.2656 112.512 24.7826L121.667 20.9291C121.667 18.1106 119.344 13.912 114.119 13.912C109.453 13.912 106.276 17.1618 106.276 21.7507C106.276 27.0911 110.152 29.9373 114.683 29.9373C118.583 29.9373 120.894 27.9257 120.894 27.9257L118.644 24.3061C118.644 24.3061 116.968 25.496 114.883 25.496ZM110.961 21.508C110.961 19.5315 112.321 18.2012 113.986 18.2012C115.381 18.2012 116.007 19.0272 116.271 19.5856L110.972 21.8209C110.968 21.7528 110.964 21.6848 110.962 21.6164C110.962 21.5968 110.961 21.5772 110.961 21.5575C110.961 21.5411 110.961 21.5246 110.961 21.508Z" fill="#00C28C"/>
<path d="M17.404 17.8147C17.404 17.8147 18.1285 17.4523 19.6237 17.2131C20.3684 17.0812 21.025 17.0159 21.7817 17.0179V7.81116C19.1295 7.82309 16.5697 8.28068 14.0747 9.16415L17.404 17.8147Z" fill="#00C28C"/>
<path d="M14.3646 19.539C14.3646 19.539 13.3878 20.3358 12.8904 20.8406C12.4423 21.2896 11.5461 22.468 11.5461 22.468L3.40869 17.5564C4.84583 15.3289 6.7053 13.3935 8.88591 11.8554L14.3646 19.539Z" fill="#00C28C"/>
<path d="M9.43851 29.1904C9.49964 27.9141 9.73268 26.6514 10.1316 25.4352C10.2063 25.2151 10.2585 25.0449 10.2585 25.0449L1.05914 22.562C0.34943 24.8063 -0.00767134 27.144 0.000124945 29.4941V29.593H9.42207C9.42207 29.593 9.42657 29.412 9.43851 29.1904Z" fill="#00C28C"/>
<path d="M21.782 25.6142V20.3345C16.3093 20.446 12.7441 24.2071 12.7441 29.4943V29.593H18.0249C18.027 29.5693 18.0267 29.5465 18.0266 29.5238L18.0264 29.501C18.0264 27.2021 19.3705 25.7062 21.782 25.6142Z" fill="#00C28C"/>
</g>
<defs>
<clipPath id="clip0_2_28799">
<rect width="121.667" height="40" fill="white"/>
</clipPath>
</defs>
</svg>
